<?xml version="1.0" encoding="UTF-8"?><svg xmlns="http://www.w3.org/2000/svg" viewBox="0 0 567.09 935.05"><defs><style>.d{fill:none;stroke:#555;stroke-linecap:round;stroke-linejoin:round;stroke-width:14.92px;}</style></defs><g id="a"/><g id="b"><g id="c"><g><polyline class="d" points="411.42 818.5 411.42 878.26 155.67 878.26 155.67 818.5"/><path class="d" d="M430.79,720.89c14.47,8.15,24.25,23.66,24.25,41.46h0c0,32-25.94,57.94-57.94,57.94H170c-32,0-57.94-25.94-57.94-57.94h0c0-9.4,2.73-18.17,7.44-25.55"/><path class="d" d="M373.13,484.95c-10.38-7.05-17.1-18.94-17.1-32.26v-17.09"/><path class="d" d="M446.73,692.48c50.82-24.77,91.48-68.68,111.4-124.3h0c2.61-7.3,1.78-15.38-2.22-22.03-10.88-18.1-27.77-32.27-48.09-39.63"/><path class="d" d="M211.06,415.14v37.55c0,19.94-15.05,36.67-34.89,38.76l-94.88,10.01c-30.04,3.17-55.5,20.39-70.11,44.7-3.99,6.64-4.83,14.73-2.22,22.02h0c15.29,42.68,42.79,78.47,77.73,104.01"/><rect class="d" x="83.31" y="878.26" width="400.47" height="49.33" rx="18.32" ry="18.32"/><path class="d" d="M405.93,161.93c18.64-2.14,33.11-17.98,33.11-37.19,0-14.25-7.96-26.63-19.67-32.95-3.52-1.9-5.16-5.88-4.88-9.88,.39-5.61-1.28-11.81-6.24-18.14-.39-.5-.89-.98-1.4-1.35-5.23-3.79-10.33-5.45-15.06-5.62-5.07-.18-9.39-4.61-9.75-9.67-.66-9.4-4.61-19.5-13.64-29.73-.39-.44-.86-.85-1.35-1.18-23.67-15.55-48.25-8.77-61.07,7.64-3.17,4.06-9,5.05-13.5,2.53-3.38-1.9-7.28-2.98-11.44-2.98-3.38,0-6.6,.72-9.5,2.01-4.16,1.85-8.97,.51-11.94-2.94-6.87-7.98-17.04-13.04-28.4-13.04-16.6,0-30.69,10.78-35.64,25.72-1.82,5.47-7.63,8.49-13.09,6.66-12.59-4.22-34.01-6.76-54.72,12.46-.33,.31-.65,.66-.92,1.03-13.27,18.03-15.69,36.52-11.15,52.04,1.8,6.15-2,12.28-8.3,13.43-7.47,1.37-15.46,5.39-23.83,13.57-.43,.42-.83,.93-1.14,1.45-10.01,17.09-7.15,34.35,2.44,45.81,4.18,4.99,4.12,12.04,1.19,17.86-1.58,3.15-2.47,6.7-2.47,10.47,0,.98,.06,1.94,.18,2.88,.71,5.6-.69,11.44-4.98,15.12-7.63,6.57-12.47,16.28-12.47,27.14,0,15.29,9.58,28.35,23.06,33.5,5.57,2.13,7.98,8.8,5.28,14.11-7.12,14.01-13.75,38.31,8.45,60.51,.44,.44,.84,.96,1.33,1.33,27.49,20.37,56.61,15.04,73.63-2.25"/><path class="d" d="M288.09,308.48c21.38-13.88,33.04-15.68,58.85-15.68,14.81,0,27.03,4.14,35.94,8.64"/><path class="d" d="M311.9,333.77c9.77-4.93,17.23-7.3,30.98-7.3,9.99,0,18.57,2.58,24.58,5.62"/><path class="d" d="M182.46,188.33c-17.5,2.03-26.25,10.99-32.71,27.67-5.38,13.9-.49,30.45,10.07,38.88,3.43,2.74,4.58,8.21,2.94,12.28-1,2.48-1.55,5.19-1.55,8.03,0,5.98,2.44,11.36,6.36,15.26,3.61,3.58,4.5,9.26,1.54,13.39-4.97,6.94-7.9,15.45-7.9,24.65,0,15.3,8.11,28.71,20.26,36.16,5.66,3.47,8.42,10.52,6.47,16.87-1.45,4.71-1.58,10,.04,15.48,2.48,8.35,8.87,14.59,17.21,17.07,3.81,1.13,7.5,1.39,10.96,.95,7.04-.9,14.17,2.28,16.89,8.83,6.61,15.93,22.28,27.14,40.61,27.14,10.1,0,19.39-3.42,26.8-9.15,4.7-3.63,12.49-3.99,17.68-1.12,4.6,2.54,9.89,3.99,15.51,3.99,9.44,0,17.92-4.07,23.8-10.56,4.64-5.12,12.39-6.39,18.54-3.24,5.96,3.05,12.95,4.39,20.32,3.34,14.6-2.07,26.49-13.94,28.61-28.54,.98-6.76-.05-13.19-2.57-18.81-2.15-4.8-1.02-11.64,2.29-15.72,3.35-4.14,5.37-9.4,5.37-15.16,0-2.8-.48-5.48-1.35-7.98-1.84-5.24-1.12-11.12,2.81-15.04,6.73-6.72,10.9-22.11,10.9-32.37,0-20-15.8-43.07-35.59-43.89"/><path class="d" d="M182.46,188.33s5.86,71.84,62.7,117.96c12.32,10,29.63,10.83,42.94,2.19,21.38-13.87,33.04-15.68,58.84-15.68,14.81,0,27.03,4.14,35.94,8.64,8.8,4.45,19.44-.24,21.8-9.81h0c1.38-5.58,2.07-11.31,2.07-17.05v-101.39c0-42.28-34.27-76.55-76.55-76.55h-53.58c-7.14,0-13.83,4.36-15.94,11.17-2.59,8.36-7.73,14.82-15.43,17.81-5.59,2.17-8.19,8.55-6.17,14.19,2.03,5.65,2.73,11.94,1.73,18.5-2.42,15.73-15.04,28.54-30.74,31.11-5.22,.85-22.89,.03-27.61-1.08"/><path class="d" d="M396.46,657.86c-30.71,52.01-51.94,84.9-85.15,113.64-2.18,1.88-4.84,3.16-7.69,3.62-79.9,12.83-194.69-25.45-229.25-78.37-5.37-8.23-1.51-19.38,7.69-22.82,177.2-66.14,284.14-179.87,309.18-208.6,3.63-4.17,9.22-6.03,14.64-4.93l24.97,5.06c9.95,2.02,15.29,12.91,10.75,21.98-20.17,40.25-77.55,139.28-183.44,210.85"/><path class="d" d="M439.03,492.48l6.83-14.34c2.56-5.37,7.97-8.79,13.92-8.79h35.29c9.15,0,16.31,7.89,15.34,16.99-4.42,41.72-22.89,153.84-98.23,263.51-4.11,5.99-10.91,9.6-18.17,9.86l-72.67,2.63"/></g></g></g></svg>